<svg width="89" height="40" viewBox="0 0 89 40" fill="none" xmlns="http://www.w3.org/2000/svg">
<path fill-rule="evenodd" clip-rule="evenodd" d="M40 40H0V0H40V8.31452H36.6491V3.49664H3.30201V36.8437H36.6491V31.9769H40V40ZM50.3618 23.6498C50.205 23.8311 50.0348 23.9957 49.8469 24.1492C49.8213 24.1736 49.7946 24.197 49.769 24.2192C49.6355 24.3338 49.4787 24.4305 49.293 24.5139C48.8281 24.7608 48.3343 24.8776 47.8283 24.8732C47.4057 24.8665 46.9664 24.772 46.5916 24.6074C45.9076 24.3082 45.3226 23.7087 44.8532 22.8279C44.424 22.0194 44.206 21.0729 44.2227 20.0886C44.2538 18.2369 45.1368 16.562 46.4703 15.8202C46.9519 15.5521 47.4635 15.4254 47.9907 15.4298C48.9093 15.4454 49.7823 15.8969 50.4485 16.701L50.5586 16.8345L52.7507 14.8793L52.6384 14.7547C52.4671 14.5657 52.2758 14.3855 52.0712 14.2198C50.9857 13.3445 49.541 12.9007 47.7771 12.9007C46.5015 12.9007 45.3648 13.181 44.3973 13.7349C43.4275 14.2898 42.6712 15.0984 42.1496 16.136C41.6313 17.1681 41.3677 18.3759 41.3677 19.725V20.5702C41.3677 22.6878 41.9405 24.3794 43.0693 25.5983C44.2004 26.8228 45.7708 27.4423 47.7349 27.4423C49.5266 27.4423 50.9935 26.9996 52.0956 26.1243C52.2814 25.9764 52.4571 25.8152 52.6184 25.6461L52.7362 25.5216L50.4719 23.523L50.3618 23.6498ZM12.3626 13.0924V22.568C12.3826 24.1195 12.8897 25.3584 13.8707 26.2504C14.8471 27.1379 16.1795 27.5883 17.8299 27.5883C19.506 27.5883 20.8495 27.1245 21.8237 26.2092C22.8013 25.2917 23.2962 24.0305 23.2962 22.4612V13.0924H20.1043V22.5546C20.081 24.1617 19.3358 24.9436 17.8299 24.9436C17.1115 24.9436 16.5443 24.7478 16.145 24.3619C15.7469 23.9771 15.5456 23.3443 15.5456 22.4801V13.0924H12.3626ZM31.6167 27.4453H34.6407V20.5699C34.6307 19.4955 34.2503 18.4857 33.5108 17.5693C32.958 16.8853 32.1128 16.5383 30.9962 16.5383C29.7394 16.5383 28.6895 16.9109 27.9922 17.596L27.9266 16.7296H25.0717V27.4453H28.0968V20.6388C28.0968 20.6311 28.099 20.5988 28.1357 20.5298L28.1535 20.482C28.3014 19.6924 28.992 19.1196 29.7939 19.1196H29.9185C30.8382 19.1196 31.5878 19.8692 31.5878 20.7901V23.5783L31.6167 27.4453ZM36.6346 16.6813H39.6686V27.397H36.6346V16.6813ZM39.6586 13.0924H36.6491V16.1019H39.6586V13.0924ZM58.4834 24.9282C58.7125 24.8136 58.9093 24.6435 59.0795 24.4077C59.4131 23.9484 59.5989 23.1665 59.5977 22.0666C59.5977 21.1335 59.4176 20.4295 59.0784 19.9457C58.9082 19.7033 58.7091 19.5275 58.4778 19.4085C58.2453 19.2918 57.9784 19.2306 57.6681 19.2306C57.3601 19.2306 57.0965 19.2906 56.8685 19.4074C56.6394 19.5242 56.4436 19.6988 56.2768 19.9402C55.9465 20.4139 55.7652 21.1902 55.7663 22.2646C55.7663 23.2177 55.9443 23.9272 56.2768 24.3999C56.4425 24.6379 56.6394 24.8103 56.8707 24.926C57.1032 25.0416 57.3723 25.1006 57.687 25.1017C57.9918 25.1006 58.2542 25.0427 58.4834 24.9282ZM61.1147 18.0094C62.0078 18.8858 62.5038 20.0792 62.6039 21.5583V21.5628L62.6228 22.2679V22.2701C62.6239 23.8694 62.1802 25.1762 61.2849 26.1605C60.3907 27.1447 59.1751 27.6396 57.687 27.6374C56.1979 27.6396 54.9823 27.147 54.0848 26.1649C53.1839 25.184 52.7402 23.8483 52.7413 22.1945V22.0711C52.7413 21.0356 52.9381 20.1036 53.3352 19.284C53.7322 18.4643 54.3116 17.8215 55.0623 17.3711C55.8142 16.9184 56.6872 16.6938 57.6681 16.6938C59.0617 16.6926 60.2239 17.1319 61.1147 18.0094ZM70.2075 23.0618L70.2086 23.4599V23.4833C70.1875 23.6601 70.1341 23.8603 70.0563 24.0438C69.9862 24.2118 69.8895 24.3652 69.7693 24.502C69.5269 24.7767 69.1977 24.9658 68.8418 25.0359C68.7384 25.0559 68.6327 25.0659 68.5259 25.0659H68.4281C67.9376 25.0659 67.4738 24.8479 67.1446 24.4553C67.0646 24.3652 66.9978 24.264 66.9478 24.1517C66.8577 23.956 66.811 23.7246 66.811 23.4655V17.0216H63.9316V23.5556C63.945 24.8268 64.263 25.8099 64.8781 26.4783C65.4975 27.1501 66.4006 27.4915 67.5639 27.4915C68.6761 27.4915 69.5881 27.149 70.2809 26.475L70.3432 27.4448H73.2916V17.025L70.2075 16.9705V23.0618ZM88.1577 16.9734L88.1344 19.558H85.8489V24.1123C85.8489 24.3548 85.9523 24.4593 86.0724 24.5805C86.1058 24.615 86.138 24.6484 86.1681 24.6829C86.276 24.8085 86.5162 24.8742 86.8621 24.8742C86.9086 24.8742 86.9611 24.875 87.0174 24.8759L87.018 24.8759L87.0454 24.8764L87.1268 24.8775C87.3937 24.8831 87.7585 24.8897 87.9142 24.8586L88.1121 24.8208V27.5711L87.9575 27.5823C87.665 27.6023 87.4026 27.6078 87.1623 27.6078C86.9388 27.6078 86.7342 27.6034 86.5418 27.5978C86.3638 27.5923 86.1937 27.5878 86.0235 27.5878C83.9349 27.5878 82.7637 26.5012 82.7259 24.5283L82.7404 19.558L81.4759 19.5547C80.9976 19.548 80.079 19.538 79.8755 19.538C78.9357 19.538 78.334 19.8438 78.0382 20.4733V27.3965H75.0131V16.9734H77.9336L77.9503 17.5884C78.4741 17.019 79.1392 17.0212 79.8855 17.0245H80.0434C80.1507 17.0245 80.4087 17.0241 80.6951 17.0236L80.6971 17.0236L80.703 17.0236L80.7071 17.0236C81.0619 17.023 81.4574 17.0223 81.6627 17.0223H82.7749V14.2753H85.7999V16.9734H88.1577Z" fill="white"/>
</svg>
